# xmcd
#
# Track frame offsets:
#	150
#	12701
#	27035
#	45124
#	64675
#	79268
#	94970
#	109779
#	125721
#	142193
#	155532
#	172212
#	187359
#	203875
#	219293
#	234433
#	250753
#	266026
#	280488
#	295895
#
# Disc length: 4137 seconds
#
# Revision: 0
# Processed by: cddbd v1.5.2PL0 Copyright (c) Steve Scherf et al.
# Submitted via: audiograbber 1.83.01
#
DISCID=35102714
DTITLE=Bellamy Brothers - Greatest Hits
DYEAR=1999
DGENRE=Country
TTITLE0=Let your Love Flow
TTITLE1=If I said you had a Beautyful Body
TTITLE2=Old Hippie
TTITLE3=You ain't just Whistlin' Dixie
TTITLE4=Dancin' Cowboys
TTITLE5=Sugar Daddy
TTITLE6=Lovers Live Longer
TTITLE7=Crazy from the Heat
TTITLE8=Feelin' the Feelin'
TTITLE9=Do you Love as Good as you Look
TTITLE10=For all the wrong Reasons
TTITLE11=Redneck Girl
TTITLE12=When I'm away for your Love
TTITLE13=I'd lie to you for your Love
TTITLE14=You'll never be sorry
TTITLE15=Santa Fe
TTITLE16=I need more of you
TTITLE17=Big Love
TTITLE18=Kids of the Baby Boom
TTITLE19=Get into Reggae Cowboy
EXTD=
EXTT0=
EXTT1=
EXTT2=
EXTT3=
EXTT4=
EXTT5=
EXTT6=
EXTT7=
EXTT8=
EXTT9=
EXTT10=
EXTT11=
EXTT12=
EXTT13=
EXTT14=
EXTT15=
EXTT16=
EXTT17=
EXTT18=
EXTT19=
PLAYORDER=
